<svg width="128" height="36" viewBox="0 0 128 36" fill="none" xmlns="http://www.w3.org/2000/svg">
    <g id="Datum Logo">
    <path id="Vector" d="M123.737 12.5498C125.123 12.5498 126.178 12.9834 126.902 13.8507C127.635 14.709 128.002 15.8847 128.002 17.3777V26.8324H124.676V18.1556C124.676 16.3406 123.969 15.4332 122.557 15.4332C121.743 15.4332 121.068 15.8087 120.532 16.5597C119.995 17.3107 119.727 18.2807 119.727 19.4698V26.8324H116.415V18.1556C116.415 17.2705 116.236 16.5954 115.878 16.1305C115.521 15.6656 114.993 15.4332 114.296 15.4332C113.482 15.4332 112.807 15.8087 112.271 16.5597C111.734 17.3107 111.466 18.2718 111.466 19.443V26.8324H108.113V12.8314H111.412V15.3795H111.493C111.743 14.6017 112.213 13.9356 112.901 13.3813C113.598 12.827 114.466 12.5498 115.503 12.5498C116.558 12.5498 117.416 12.8046 118.078 13.3142C118.748 13.8238 119.209 14.548 119.459 15.4868H119.539C119.825 14.6464 120.326 13.949 121.041 13.3947C121.757 12.8314 122.655 12.5498 123.737 12.5498Z" fill="#312847"/>
    <path id="Vector_2" d="M94.0155 22.327V12.832H97.3414V21.5625C97.3414 23.3507 98.0701 24.2447 99.5274 24.2447C100.386 24.2447 101.096 23.8603 101.66 23.0914C102.223 22.3225 102.505 21.3346 102.505 20.1276V12.832H105.844V26.833H102.558V24.2179H102.478C102.156 25.0583 101.669 25.7512 101.016 26.2966C100.363 26.833 99.5408 27.1013 98.5484 27.1013C95.5265 27.1013 94.0155 25.5098 94.0155 22.327Z" fill="#312847"/>
    <path id="Vector_3" d="M85.2475 22.7957V15.5672H83.4102V12.9655H84.0941C84.6484 12.9655 85.015 12.8448 85.1938 12.6034C85.3816 12.362 85.4754 11.8703 85.4754 11.1282V8.43262H88.5734V12.8314H92.0602V15.5672H88.5734V22.219C88.5734 22.9969 88.7075 23.5423 88.9757 23.8552C89.2439 24.1592 89.6865 24.3112 90.3034 24.3112C90.9024 24.3112 91.488 24.1726 92.0602 23.8954V26.6447C91.2734 26.9755 90.4062 27.1409 89.4585 27.1409C87.9654 27.1409 86.8881 26.8056 86.2265 26.135C85.5738 25.4556 85.2475 24.3424 85.2475 22.7957Z" fill="#312847"/>
    <path id="Vector_4" d="M68.25 19.9392C68.25 17.6683 68.8043 15.8712 69.913 14.548C71.0216 13.2159 72.4923 12.5498 74.3252 12.5498C75.3891 12.5498 76.2474 12.7867 76.9 13.2606C77.5527 13.7255 77.9908 14.2575 78.2143 14.8565H78.3082V12.8314H81.5671V26.8324H78.3082V24.3112H78.2143C78.0266 25.0622 77.5706 25.7149 76.8464 26.2692C76.1222 26.8235 75.179 27.1007 74.0167 27.1007C73.2031 27.1007 72.4476 26.9442 71.7503 26.6313C71.0529 26.3184 70.4405 25.8669 69.913 25.2768C69.3944 24.6867 68.9876 23.9357 68.6926 23.0237C68.3975 22.1029 68.25 21.0747 68.25 19.9392ZM78.2411 20.0197V19.3357C78.2411 18.0662 77.9372 17.0648 77.3292 16.3317C76.7302 15.5896 75.9747 15.2186 75.0628 15.2186C74.0167 15.2186 73.1808 15.6343 72.5549 16.4658C71.938 17.2973 71.6296 18.4193 71.6296 19.8319C71.6296 21.2803 71.9335 22.4068 72.5415 23.2115C73.1495 24.0161 73.9452 24.4185 74.9286 24.4185C75.8942 24.4185 76.6855 24.0296 77.3024 23.2517C77.9282 22.4739 78.2411 21.3965 78.2411 20.0197Z" fill="#312847"/>
    <path id="Vector_5" d="M51.1367 8.43262H57.9226C59.0492 8.43262 60.0863 8.58461 61.034 8.88859C61.9906 9.19257 62.8132 9.61725 63.5016 10.1626C64.199 10.708 64.789 11.3562 65.2718 12.1072C65.7636 12.8582 66.1301 13.6852 66.3715 14.5882C66.6129 15.4912 66.7336 16.4523 66.7336 17.4716C66.7336 18.7948 66.5325 20.0241 66.1301 21.1596C65.7367 22.2861 65.169 23.274 64.4269 24.1234C63.6849 24.9638 62.7416 25.6254 61.5972 26.1082C60.4528 26.591 59.1699 26.8324 57.7483 26.8324H51.1367V8.43262ZM57.5606 23.8418C58.5083 23.8418 59.3442 23.6853 60.0684 23.3724C60.8015 23.0595 61.3961 22.6214 61.852 22.0581C62.308 21.4859 62.6478 20.8198 62.8713 20.0599C63.1037 19.2999 63.22 18.455 63.22 17.5252C63.22 16.649 63.1082 15.8489 62.8847 15.1247C62.6612 14.3915 62.3259 13.7478 61.8789 13.1935C61.4318 12.6302 60.8418 12.1966 60.1086 11.8926C59.3755 11.5797 58.5261 11.4233 57.5606 11.4233H54.5699V23.8418H57.5606Z" fill="#312847"/>
    <path id="Vector_6" d="M13.676 4.57764e-05C13.15 4.57764e-05 12.7211 0.414631 12.7211 0.925999V9.97368C12.7211 10.4837 13.1486 10.8996 13.676 10.8996H18.2603C20.1323 10.8996 21.9153 11.6085 23.2816 12.8941C24.6559 14.1889 25.4233 15.8982 25.4449 17.7096C25.4665 19.5654 24.7368 21.3127 23.3922 22.631C22.0475 23.9493 20.2537 24.6752 18.3412 24.6752H18.2603C16.3923 24.6543 14.6295 23.9101 13.2943 22.5774C11.9685 21.2539 11.2375 19.5236 11.2375 17.7083V13.2629C11.2375 12.7529 10.81 12.337 10.2826 12.337H0.954892C0.428892 12.337 0 12.7516 0 13.2629V22.3106C0 22.8207 0.427543 23.2366 0.954892 23.2366H8.31754C9.3075 23.2366 9.94544 23.2496 10.4714 23.319C11.1701 23.4105 11.6381 23.6041 11.9914 23.9454C12.3448 24.2868 12.5431 24.7419 12.6375 25.4194C12.709 25.9307 12.7225 26.548 12.7225 27.5093V34.6475C12.7225 35.1576 13.15 35.5735 13.6773 35.5735H18.3426C20.4371 35.5735 22.4939 35.2321 24.4563 34.5599C31.7704 32.0528 36.6851 25.3121 36.6851 17.7868C36.6851 10.2614 31.7704 3.52077 24.4563 1.01363C22.4939 0.341393 20.4371 4.57764e-05 18.3426 4.57764e-05H13.6773H13.676Z" fill="#F27A67"/>
    </g>
</svg>