<svg
  width="24"
  height="24"
  viewBox="0 0 24 24"
  fill="none"
  xmlns="http://www.w3.org/2000/svg"
>
  <g id="gh" opacity="0.3">
    <path
      id="Vector"
      d="M2.66667 0H21.3333C22.0406 0 22.7189 0.280951 23.219 0.781048C23.719 1.28115 24 1.95942 24 2.66667V21.3333C24 22.0406 23.719 22.7189 23.219 23.219C22.7189 23.719 22.0406 24 21.3333 24H15.4133C14.9867 23.9067 14.9733 23.0933 14.9733 22.8133L14.9867 19.52C14.9867 18.4 14.6 17.6667 14.1733 17.2933C16.8533 17 19.6533 16 19.6533 11.3733C19.6533 10.0667 19.1867 8.98667 18.4267 8.14667C18.5467 7.85333 18.96 6.62667 18.3067 4.97333C18.3067 4.97333 17.2933 4.66667 15 6.21333C14.04 5.94667 13.0267 5.81333 12 5.8C10.9867 5.81333 9.94667 5.94667 9 6.21333C6.70667 4.66667 5.69333 4.97333 5.69333 4.97333C5.04 6.62667 5.45333 7.85333 5.57333 8.14667C4.81333 8.98667 4.34667 10.0667 4.34667 11.3733C4.34667 16 7.14667 17 9.81333 17.3333C9.46667 17.6 9.16 18.1333 9.05333 18.9067C8.36 19.2133 6.62667 19.7467 5.56 17.9067C5.56 17.9067 4.92 16.76 3.72 16.6667C3.72 16.6667 2.54667 16.6667 3.64 17.4C3.64 17.4 4.42667 17.7733 4.97333 19.16C4.97333 19.16 5.66667 21.4933 9.01333 20.7733L9.02667 22.8133C9.02667 23.0933 9 23.9067 8.57333 24H2.66667C1.95942 24 1.28115 23.719 0.781048 23.219C0.280951 22.7189 0 22.0406 0 21.3333V2.66667C0 1.95942 0.280951 1.28115 0.781048 0.781048C1.28115 0.280951 1.95942 0 2.66667 0Z"
      fill="#443A5B"
    />
  </g>
</svg>